PathFileType	4	(X/Y/Z)	RBDS014\RBDS014runT45.trc
DataRate	CameraRate	NumFrames	NumMarkers	Units	OrigDataRate	OrigDataStartFrame	OrigNumFrames
150.000000	150.000000	5	32	mm	150.000000	562	4500
Frame#	Time	L.ASIS			L.Heel.Bottom			L.Heel.Lateral			L.Heel.Top			L.Iliac.Crest			L.MT1			L.MT5			L.PSIS			L.Shank.Bottom.Lateral			L.Shank.Bottom.Medial			L.Shank.Top.Lateral			L.Shank.Top.Medial			L.Thigh.Bottom.Lateral			L.Thigh.Bottom.Medial			L.Thigh.Top.Lateral			L.Thigh.Top.Medial			R.ASIS			R.ASY			R.Heel.Bottom			R.Heel.Lateral			R.Heel.Top			R.Iliac.Crest			R.MT5			R.PSIS			R.Shank.Bottom.Lateral			R.Shank.Bottom.Medial			R.Shank.Top.Lateral			R.Shank.Top.Medial			R.Thigh.Bottom.Lateral			R.Thigh.Bottom.Medial			R.Thigh.Top.Lateral			R.Thigh.Top.Medial			
		X1	Y1	Z1	X2	Y2	Z2	X3	Y3	Z3	X4	Y4	Z4	X5	Y5	Z5	X6	Y6	Z6	X7	Y7	Z7	X8	Y8	Z8	X9	Y9	Z9	X10	Y10	Z10	X11	Y11	Z11	X12	Y12	Z12	X13	Y13	Z13	X14	Y14	Z14	X15	Y15	Z15	X16	Y16	Z16	X17	Y17	Z17	X18	Y18	Z18	X19	Y19	Z19	X20	Y20	Z20	X21	Y21	Z21	X22	Y22	Z22	X23	Y23	Z23	X24	Y24	Z24	X25	Y25	Z25	X26	Y26	Z26	X27	Y27	Z27	X28	Y28	Z28	X29	Y29	Z29	X30	Y30	Z30	X31	Y31	Z31	X32	Y32	Z32	

563	3.746666666666667	2231.953436722756	1101.090437992122	953.4192252145588	2448.411067705061	48.27487345769823	1059.012813811803	2463.855627775281	74.7313359811198	1016.467317629264	2434.181839079622	97.63149408940404	1053.640387211655	2153.711791404681	1174.388397894465	914.3568303744938	2646.008120209046	173.6570238218522	1114.642193388591	2628.78805187757	136.7915505778983	996.9009782328112	2057.662514444916	1139.16567151488	1014.58214646601	2462.984446609929	244.829655015427	986.7884367953545	2416.239123475681	236.3046108234439	1016.676545894133	2434.781935473938	317.4545238998683	965.4905511560457	2389.861968661659	310.2111499099067	994.603761048118	2316.974481293834	754.7637515414959	915.0753179168164	2262.323474035141	720.5697579629305	948.0047545262644	2248.404013940367	838.9517305423176	895.4359925280797	2197.267317580707	808.4724558243942	928.7010692812576	2237.981264537104	1088.122361227176	1190.859875175833	1484.382361883807	295.1755776751686	1105.199689666571	1408.639869234732	470.1441461869947	1021.966276898929	1418.007545580309	461.1250659740319	1071.019366168597	1457.459336443456	471.3217436056981	1039.34832545221	2205.30137738813	1170.031361299506	1208.141318173537	1406.502464008742	296.9440574356952	1144.362940818409	2067.733649407594	1138.905844219749	1113.523007298745	1543.861850995436	478.8048312828444	1124.602413250845	1546.3535932613	499.3119134155152	1077.50689846687	1610.348930189561	526.7020030284252	1146.635816222101	1608.17696231578	547.6472215687965	1097.917011896846	1996.13631861891	729.7867009765421	1227.669000658698	1942.489736011192	760.8844615027697	1188.399758528295	2036.667698816278	830.5101508328485	1246.113080798461	1987.638137874904	859.385566356506	1205.786963853813	
564	3.753333333333333	2231.361857552106	1099.609253595846	953.4444716125425	2454.522353972493	42.58105807002202	1061.317693458891	2469.213559408226	68.99931639332269	1018.401188499676	2439.472074779975	91.71481110824529	1055.564210091336	2152.691537102208	1172.012224046785	914.7699797476771	2650.498924977594	171.792640880361	1113.934685021217	2632.972495950485	133.5496394541546	996.9080960251581	2057.496622354187	1136.608676821017	1015.71937560493	2464.892966796181	238.8941336600994	987.3076954895781	2418.464072675721	229.5490011818281	1017.752409651089	2434.798903223917	310.8090138506809	965.8204809603442	2390.263948197372	302.8134861411855	995.4564917666969	2312.508594715891	749.3425198362301	914.2047009509282	2257.481918165714	716.270082387835	947.7981204491565	2245.35228939205	834.9236607092126	895.2517294603643	2193.941664297222	805.4485858775488	929.0412966932632	2239.197814442353	1087.284222169649	1191.025607304575	1477.312006966824	315.6482192265865	1101.180588415347	1409.280424282013	494.111306980049	1020.0011823812	1418.293572091495	484.2687195884142	1068.866629669322	1458.000783584147	493.0579336155613	1037.204566148371	2205.418291125749	1169.136195064381	1208.219039423696	1399.927911559154	320.4268992542911	1140.649879672404	2068.294155127548	1136.661631977157	1114.53261866411	1545.41513806233	494.8781736554836	1123.053253419381	1549.149825705423	515.9077896239706	1076.186171645871	1614.630433042812	538.3961324633675	1145.735664982395	1613.706097378306	560.290830112541	1097.38438204116	2002.572507921442	724.8791224937632	1228.896347099557	1948.429535727866	754.7500509003884	1189.352392944707	2041.402805013109	826.4365190536461	1246.610192779786	1991.776002636217	854.1534488975764	1206.146508086489	
565	3.76	2230.799046273441	1097.811995394232	953.5117898304802	2455.495708831203	37.54451953982402	1063.439228172527	2469.678536311193	63.71871031263949	1020.184567064509	2440.352234131645	86.53398144730021	1057.442906158363	2151.830574889775	1169.461632974052	915.332163984503	2651.260526239652	167.5466030498821	1112.594524455066	2632.699993278248	128.4352870864492	996.3692664167744	2057.385120715437	1133.606255102935	1017.0543645277	2463.574178622521	232.6847253102972	987.6949819116511	2417.61475160805	222.9825052951623	1018.925900146525	2432.302245627277	304.1494147364495	966.2064740393934	2388.278393915122	295.8437568442656	996.5947269558651	2308.497369961694	744.1019764433207	913.5994258944465	2253.161737718036	711.9644698517476	947.6950260689049	2242.554487186509	830.8443373357051	895.1995821523681	2190.955759372921	802.1925604525267	929.3968641483433	2240.471014843118	1085.875352508076	1191.210605971682	1472.401793005899	336.2722419820504	1097.257968123761	1412.617878889076	518.3270992586463	1018.705270264312	1421.233346437432	507.4906706207042	1067.317867606825	1461.169370056705	514.859674773037	1035.690869452692	2205.634932775962	1167.681158050945	1208.444567880896	1395.643016280536	344.0547147883372	1137.063680694844	2068.920145345395	1133.835899492144	1115.74818190574	1549.1674642314	510.5442958672228	1122.050681453793	1554.113637376999	532.149024642938	1075.492003267894	1620.854414443132	549.4506471619843	1145.398525573532	1621.160828886456	572.3507777515088	1097.497779727464	2009.410602518983	719.1086366253047	1230.036276808016	1954.811629698988	747.6384311840702	1190.125528758353	2046.337594550402	821.5262717571829	1246.975597129241	1996.17009383991	847.9905489914172	1206.276866606829	
566	3.766666666666667	2230.250893278004	1095.640106532182	953.6007161226198	2451.408980531734	33.14789232885654	1065.407098202961	2465.368631644536	58.86892868729815	1021.868626761385	2436.919712906858	82.06934268768973	1059.315241450524	2151.104342521638	1166.699543145323	916.0263810924291	2648.38447550399	160.8288915932754	1110.869943862008	2628.127058981157	121.3929700333037	995.4748393878245	2057.287096099766	1130.112168240577	1018.580554955393	2459.220327559422	226.1196656309338	988.0067681455032	2413.816654761879	216.5254048030321	1020.146694911446	2427.503990933159	297.4115920766586	966.6290269411026	2384.041772064162	289.2342333093379	997.8960422087295	2304.892252750534	739.0067850907645	913.1796787468926	2249.336078872143	707.6233232548141	947.667302298059	2239.929308328345	826.6654951817949	895.2184887802563	2188.248484670851	798.6689134275136	929.7661379730871	2241.806816429134	1083.858669542161	1191.409630554233	1469.818642600103	356.8932251124647	1093.608591183408	1418.735873857348	542.4802392363105	1018.001321157214	1426.891682133044	530.5448986147861	1066.315901615391	1467.031107669222	536.4587628369078	1034.741421783974	2205.96893888454	1165.574799173367	1208.835173999875	1393.795312908014	367.6866415413766	1133.771541973477	2069.599788394348	1130.387344522931	1117.169505018793	1555.13179673472	525.6485869323329	1121.558601793393	1561.271500550919	547.8719187513537	1075.398056360004	1628.977583358978	559.7726039317605	1145.596790219672	1630.523630443108	583.7044011585027	1098.221688736139	2016.598663308382	712.5311952454346	1231.048938111723	1961.59350757869	739.6419852435512	1190.703000330324	2051.430818281924	815.799578837908	1247.229106445661	2000.788163622454	840.9581735196464	1206.225748172281	
567	3.773333333333333	2229.69378078181	1093.03890872473	953.7033831781814	2442.497052221333	29.41567088103529	1067.260273568432	2456.535988526169	54.49520408472642	1023.512153577436	2429.386320763427	78.33183631229083	1061.23240169278	2150.472347867014	1163.662245657265	916.8198856946267	2642.01150181242	151.7414180415028	1109.006886734755	2619.487955953556	112.5784916276765	994.4090164866099	2057.146646359153	1126.089524921309	1020.271949330245	2452.105599482448	219.2114227371743	988.3150693943257	2407.268253630661	210.1721825284874	1021.363480834049	2420.677454687495	290.5988325970229	967.0749299046928	2377.749204530856	282.9680265354709	999.2285827036926	2301.60049361261	734.0116841874291	912.8471358779716	2245.934161102112	703.2195930488671	947.6815954499211	2237.370041321637	822.3473153273942	895.2440803844211	2185.729735778038	794.8607857612932	930.1478054818976	2243.192162710918	1081.216037422704	1191.621333355024	1469.688393293437	377.3347799997902	1090.384864636723	1427.618036718042	566.2297239939196	1017.798687827291	1435.249063975251	553.1599193922608	1065.792079304282	1475.55691790253	557.5707321848647	1034.274106206343	2206.416049006538	1162.749583260907	1209.398215354756	1394.502731567435	391.1493945243329	1130.929380041274	2070.301751428874	1126.289749819664	1118.772537671862	1563.266715008106	540.0471502972752	1121.513281792538	1570.598492915351	562.9147832979774	1075.84450366291	1638.92096891662	569.2830205206584	1146.270473356558	1641.740244465781	594.2358812368757	1099.483715818698	2024.103260703288	705.2107453453069	1231.911728350194	1968.738616671	730.8554016687465	1191.095185104813	2056.656314469699	809.2921908697617	1247.40437459963	2005.599755482991	833.1251978998176	1206.062592082927	
